<?xml version="1.0" encoding="utf-8"?>
<!-- Generator: Adobe Illustrator 21.0.2, SVG Export Plug-In . SVG Version: 6.00 Build 0)  -->
<svg version="1.0" id="Layer_1" xmlns="http://www.w3.org/2000/svg" xmlns:xlink="http://www.w3.org/1999/xlink" x="0px" y="0px"
	 viewBox="0 0 800 823.4" enable-background="new 0 0 800 823.4" xml:space="preserve">
<path fill="#EEF0F8" d="M55.2,169c-0.4,0-0.8,0-1.2-0.1c-2.3-0.3-4.3-1.5-5.7-3.3l-8.9-11.7c-1.4-1.8-2-4.1-1.7-6.3
	c0.3-2.3,1.5-4.3,3.3-5.7l11.7-8.9c1.8-1.4,4.1-2,6.3-1.7c2.3,0.3,4.3,1.5,5.7,3.3l8.9,11.7c1.4,1.8,2,4.1,1.7,6.3
	c-0.3,2.3-1.5,4.3-3.3,5.7l-11.7,8.9C58.9,168.4,57.1,169,55.2,169z M58,137.2c-0.6,0-1.1,0.2-1.6,0.5l-11.7,8.9
	c-0.5,0.4-0.9,1-1,1.7s0.1,1.4,0.5,1.9l8.9,11.7c0.4,0.5,1,0.9,1.7,1s1.4-0.1,1.9-0.5l11.7-8.9l0,0c0.5-0.4,0.9-1,1-1.7
	s-0.1-1.4-0.5-1.9L60,138.2c-0.4-0.5-1-0.9-1.7-1C58.2,137.2,58.1,137.2,58,137.2z"/>
<path fill="#B9C0D1" d="M604.7,532.2c-0.5,0-1.1-0.1-1.6-0.2l0,0l-14.5-2.8c-4.6-0.9-7.7-5.4-6.8-10l2.8-14.5
	c0.9-4.6,5.4-7.7,10-6.8l14.5,2.8c2.2,0.4,4.2,1.7,5.5,3.6s1.8,4.2,1.3,6.4l-2.8,14.5c-0.4,2.2-1.7,4.2-3.6,5.5
	C608,531.7,606.4,532.2,604.7,532.2z M604.2,526.1c0.7,0.1,1.4,0,1.9-0.4c0.6-0.4,1-1,1.1-1.6l2.8-14.5c0.1-0.7,0-1.4-0.4-1.9
	c-0.4-0.6-1-1-1.6-1.1l-14.5-2.8c-1.4-0.3-2.7,0.6-3,2l-2.8,14.5c-0.3,1.4,0.6,2.7,2,3L604.2,526.1z"/>
<path fill="#EEF0F8" d="M746.3,386.2c-1.7,0-3.4-0.5-4.9-1.6c-1.9-1.3-3.1-3.3-3.5-5.5l-5.3-30.1c-0.8-4.7,2.3-9.1,7-9.9l7.6-1.3
	c2.3-0.4,4.5,0.1,6.4,1.4c1.9,1.3,3.1,3.3,3.5,5.5l5.3,30.1c0.8,4.7-2.3,9.1-7,9.9l0,0l-7.6,1.3
	C747.3,386.1,746.8,386.2,746.3,386.2z M754.9,381.8L754.9,381.8L754.9,381.8z M748.6,343.6c-0.1,0-0.3,0-0.5,0l-7.6,1.3
	c-1.4,0.2-2.3,1.6-2.1,3l5.3,30.1c0.1,0.7,0.5,1.3,1.1,1.7s1.2,0.5,1.9,0.4l7.6-1.3c1.4-0.2,2.3-1.6,2.1-3l-5.3-30.1
	c-0.1-0.7-0.5-1.3-1.1-1.7C749.7,343.8,749.1,343.6,748.6,343.6z"/>
<path fill="#EEF0F8" d="M720,747.5c-7.7,0-13.9-6.3-13.9-13.9s6.3-13.9,13.9-13.9s13.9,6.3,13.9,13.9S727.7,747.5,720,747.5z
	 M720,725.6c-4.4,0-7.9,3.6-7.9,7.9s3.6,7.9,7.9,7.9s7.9-3.6,7.9-7.9S724.4,725.6,720,725.6z"/>
<path fill="#B9C0D1" d="M199,756.1c-12.2,0-22-9.9-22-22c0-12.1,9.9-22,22-22s22,9.9,22,22C221,746.2,211.1,756.1,199,756.1z
	 M199,718c-8.8,0-16,7.2-16,16s7.2,16,16,16s16-7.2,16-16S207.8,718,199,718z"/>
<path fill="#B9C0D1" d="M473.4,301.1c-0.9,0-1.8-0.4-2.3-1.1l-18.9-23.7c-0.8-0.9-0.9-2.3-0.3-3.3l14.6-26.5
	c0.5-0.9,1.4-1.5,2.4-1.5c1-0.1,2,0.3,2.6,1.1l18.9,23.7c0.8,0.9,0.9,2.3,0.3,3.3l-14.6,26.5c-0.5,0.9-1.4,1.5-2.4,1.5
	C473.6,301.1,473.5,301.1,473.4,301.1z M458.2,274.1l14.8,18.6l11.5-20.8l-14.8-18.6L458.2,274.1z"/>
<path fill="#B9C0D1" d="M150.3,358.7c-0.5,0-0.9-0.1-1.4-0.3c-1.1-0.6-1.7-1.7-1.6-3l4-42.7c0.1-1,0.7-1.9,1.6-2.4
	c0.9-0.5,1.9-0.5,2.8,0l28,14.7c0.9,0.5,1.5,1.3,1.6,2.3s-0.3,2-1,2.6l-32,28C151.8,358.5,151,358.7,150.3,358.7z M156.9,317.8
	l-2.9,30.7l23-20.2L156.9,317.8z"/>
<path fill="#EEF0F8" d="M781.8,549.4c-0.1,0-0.2,0-0.3,0l-31.4-3.2c-1-0.1-1.9-0.7-2.3-1.6s-0.5-1.9,0-2.8l19.3-37.9
	c0.6-1.1,1.7-1.7,3-1.6c1.2,0.1,2.3,1,2.6,2.1l12.1,41.1c0.3,1,0.1,2-0.6,2.8C783.5,549,782.6,549.4,781.8,549.4z M755,540.6
	l22.6,2.3l-8.7-29.6L755,540.6z"/>
<path fill="#EEF0F8" d="M583.1,375.6l7.2,9.6c1.2,1.6,3.8,1.2,4.4-0.7l4-11.7c0.6-1.8-1-3.6-2.8-3.3l-11.1,2.1
	C582.9,371.9,582,374.1,583.1,375.6z"/>
<path fill="#EEF0F8" d="M477.5,753.4c-0.9,0-1.7-0.4-2.3-1.1L455,728.1c-0.6-0.8-0.9-1.8-0.6-2.7s1-1.7,1.9-2l28-9.5
	c1-0.4,2.2-0.1,3,0.6c0.8,0.7,1.2,1.8,0.9,2.9l-7.8,33.8c-0.3,1.1-1.1,2-2.2,2.2C478,753.4,477.8,753.4,477.5,753.4z M462.4,727.6
	l13.6,16.3l5.2-22.6L462.4,727.6z"/>
<path fill="#EEF0F8" d="M112.5,611.6c-0.9,0-1.7-0.4-2.3-1.1L90,586.3c-0.6-0.8-0.9-1.8-0.6-2.7s1-1.7,1.9-2l28-9.5
	c1-0.4,2.2-0.1,3,0.6c0.8,0.7,1.2,1.8,0.9,2.9l-7.8,33.8c-0.3,1.1-1.1,2-2.2,2.2C113,611.6,112.8,611.6,112.5,611.6z M97.4,585.8
	l13.6,16.3l5.2-22.6L97.4,585.8z"/>
<path fill="#EEF0F8" d="M702.3,100.7H677c-1.1,0-2.1-0.6-2.6-1.6s-0.5-2.1,0.1-3.1l25.3-40c0.7-1.1,2.1-1.6,3.4-1.3
	c1.3,0.4,2.2,1.5,2.2,2.9v40C705.3,99.4,704,100.7,702.3,100.7z M682.5,94.7h16.9V68.1L682.5,94.7z"/>
<path fill="#EEF0F8" d="M353.2,394.4l-7.5-3.1c-1.6-0.7-2.4-2.5-1.7-4.1l3.1-7.5c0.7-1.6,2.5-2.4,4.1-1.7l7.5,3.1
	c1.6,0.7,2.4,2.5,1.7,4.1l-3.1,7.5C356.6,394.3,354.8,395,353.2,394.4z"/>
<path fill="#EEF0F8" d="M501,604.2l-6.8,4.4c-1.4,0.9-3.4,0.5-4.3-0.9l-4.4-6.8c-0.9-1.4-0.5-3.4,0.9-4.3l6.8-4.4
	c1.4-0.9,3.4-0.5,4.3,0.9l4.4,6.8C502.9,601.3,502.5,603.2,501,604.2z"/>
<circle fill="#EEF0F8" cx="298" cy="205.2" r="7.4"/>
<circle fill="#EEF0F8" cx="40.3" cy="750.4" r="7.4"/>
</svg>
