<?xml version="1.0" encoding="utf-8"?>
<!-- Generator: Adobe Illustrator 21.0.2, SVG Export Plug-In . SVG Version: 6.00 Build 0)  -->
<svg version="1.0" id="Layer_1" xmlns="http://www.w3.org/2000/svg" xmlns:xlink="http://www.w3.org/1999/xlink" x="0px" y="0px"
	 viewBox="0 0 122.7 116" enable-background="new 0 0 122.7 116" xml:space="preserve">
<g id="Layer_1_1_" display="none">
	<path display="inline" fill="#CCCCCC" d="M-149.5,95.3l6.3,10.6c0.4,0.7,1.3,0.9,2,0.6L-90,77.9c0.7-0.4,0.9-1.3,0.5-2l-6.3-10.6
		c-0.4-0.7-1.3-0.9-2-0.6L-149,93.3C-149.7,93.7-149.9,94.6-149.5,95.3z"/>
	<path display="inline" fill="#CCCCCC" d="M-93.8,129l4.8-11c0.4-0.9,0-1.8-0.9-2.2l-52.4-23.1c-0.9-0.4-1.8,0-2.2,0.9l-4.8,11
		c-0.4,0.9,0,1.8,0.9,2.2l52.5,23.1C-95.1,130.2-94.1,129.8-93.8,129z"/>
	<path display="inline" fill="#CCCCCC" d="M-82.4,127.9l11.5,5c0.9,0.4,1.8,0,2.2-0.9l30.6-69.6c0.4-0.9,0-1.8-0.9-2.2l-11.5-5
		c-0.9-0.4-1.8,0-2.2,0.9l-30.6,69.6C-83.6,126.6-83.2,127.6-82.4,127.9z"/>
	<path display="inline" fill="#CCCCCC" d="M-131.1,106.7l-17.1-0.2c-0.8,0-1.4-0.6-1.4-1.4l-0.1-10.6c0-0.8,0.6-1.4,1.4-1.4
		l17.1,0.2c0.8,0,1.4,0.6,1.4,1.4l0.1,10.6C-129.7,106.1-130.3,106.7-131.1,106.7z"/>
	<path display="inline" fill="#CCCCCC" d="M27,97.9l-6.3,10.6c-0.4,0.7-1.3,0.9-2,0.6l-51.2-28.6c-0.7-0.4-0.9-1.3-0.5-2l6.3-10.6
		c0.4-0.7,1.3-0.9,2-0.6l51.2,28.6C27.2,96.3,27.4,97.2,27,97.9z"/>
	<path display="inline" fill="#CCCCCC" d="M-28.7,131.6l-4.8-11c-0.4-0.9,0-1.8,0.9-2.2l52.5-23.1c0.9-0.4,1.8,0,2.2,0.9l4.8,11
		c0.4,0.9,0,1.8-0.9,2.2l-52.5,23.1C-27.4,132.9-28.4,132.5-28.7,131.6z"/>
	<path display="inline" fill="#CCCCCC" d="M8.6,109.4l17.1-0.2c0.8,0,1.4-0.6,1.4-1.4l0.1-10.6c0-0.8-0.6-1.4-1.4-1.4L8.7,96
		c-0.8,0-1.4,0.6-1.4,1.4L7.2,108C7.2,108.8,7.8,109.4,8.6,109.4z"/>
</g>
<g id="Layer_2">
	<path fill="none" stroke="#B3B3B3" stroke-width="3" stroke-miterlimit="10" d="M65,53.9H49.8c-1.2,0-2.1-0.9-2.1-2.1v-6.4
		c0-1.2,0.9-2.1,2.1-2.1H65c1.2,0,2.1,0.9,2.1,2.1v6.4C67.1,53,66.1,53.9,65,53.9z"/>
	<path fill="#B3B3B3" d="M19.9,55.6L19.9,55.6c-0.9,0-1.7-0.7-1.7-1.6v0c0-0.9,0.7-1.6,1.6-1.6h0c0.9,0,1.6,0.7,1.6,1.6v0
		C21.5,54.9,20.8,55.6,19.9,55.6z"/>
	<path fill="#B3B3B3" d="M64.1,22.6L64.1,22.6c-0.9,0-1.7-0.7-1.7-1.6v0c0-0.9,0.7-1.6,1.6-1.6h0c0.9,0,1.6,0.7,1.6,1.6v0
		C65.7,21.9,64.9,22.6,64.1,22.6z"/>
	<path fill="#B3B3B3" d="M106.4,17.4h-1.7c-0.8,0-1.4-0.6-1.4-1.4v-1.7c0-0.8,0.6-1.4,1.4-1.4h1.7c0.8,0,1.4,0.6,1.4,1.4V16
		C107.8,16.7,107.2,17.4,106.4,17.4z"/>
</g>
<g id="Layer_3">
	<path fill="none" stroke="#B3B3B3" stroke-width="2" stroke-miterlimit="10" d="M56.5,79.5l-8.3,4.9c-0.8,0.5-0.9,1.6-0.2,2.2
		l4.6,4c0.7,0.6,1.8,0.3,2.1-0.5l3.8-8.9C58.9,80,57.6,78.9,56.5,79.5z"/>
	<path fill="#B3B3B3" d="M103.3,64.1l1.4,2.9c0.3,0.5,1,0.7,1.4,0.2l1.4-1.4c0.4-0.4,0.3-1.2-0.2-1.4l-2.9-1.4
		C103.7,62.5,102.9,63.3,103.3,64.1z"/>
	<path fill="#B3B3B3" d="M17.8,101.7l-3.2,0.7c-0.6,0.1-0.9,0.8-0.6,1.3l1,1.8c0.3,0.5,1,0.6,1.5,0.2l2.1-2.4
		C19.2,102.5,18.7,101.5,17.8,101.7z"/>
	<path fill="none" stroke="#B3B3B3" stroke-miterlimit="10" d="M107.6,108l-19.9-5.6c-0.4-0.1-0.7-0.6-0.6-1l0.3-1.2
		c0.1-0.4,0.6-0.7,1-0.6l19.9,5.6c0.4,0.1,0.7,0.6,0.6,1l-0.3,1.2C108.4,107.8,108,108.1,107.6,108z"/>
	
		<rect x="19.4" y="11.4" transform="matrix(0.7071 -0.7071 0.7071 0.7071 -6.1958 19.8079)" fill="none" stroke="#B3B3B3" stroke-miterlimit="10" width="2.8" height="11.9"/>
</g>
</svg>
